<?xml version="1.0" encoding="UTF-8"?>
<svg version="1.1" viewBox="0 0 2048 1152" width="1280" height="1280" xmlns="http://www.w3.org/2000/svg">
<path transform="translate(999,14)" d="m0 0h49l29 2 39 5 35 7 34 9 33 11 32 13 29 14 23 12 23 14 15 10 17 12 18 14 13 11 11 9 9 9 8 7 16 16 7 8 11 12 9 11 12 15 13 18 16 24 9 15 9 16 12 23 11 24 11 28 11 33 8 30 7 35 5 37 2 24v67l-3 34-5 33-6 29-9 34-13 38-11 26-12 25-13 25-12 20-16 24-13 18-13 16-9 11-11 12-7 8-28 28-8 7-15 13-30 23-27 18-20 12-22 12-24 12-31 13-28 10-30 9-30 7-33 6-35 4-14 1h-67l-34-3-33-5-29-6-34-9-38-13-31-13-27-13-23-13-20-12-12-8-17-12-17-13-11-9-13-11-13-12-17-16-7-8-8-8-7-8-11-13-11-14-14-19-14-21-15-25-12-22-14-29-12-30-15-43-8-32-5-29-4-36-2-33v-56l2-28 5-36 7-34 9-33 10-30 13-32 13-28 12-22 13-22 16-24 14-19 11-14 12-14 11-12 7-8 23-23 8-7 10-9 11-9 18-14 18-13 17-11 25-15 28-15 33-15 35-13 29-9 28-7 31-6 29-4z" fill="#0A1D42"/>
<path transform="translate(1201,221)" d="m0 0h14l23 2 25 5 24 8 25 12 16 10 12 9 13 11 16 16 11 14 12 18 12 23 9 25 5 20 3 22v38l-4 27-6 21-8 21-12 23-11 16-8 10-9 10-16 16-17 13-18 11-15 8-21 8-21 6-23 4-30 2-18 13-17 12-18 13-17 12-18 13-17 12-18 13-17 12-18 13-17 12-18 13-2 1-1 21-4 22-7 21-8 17-12 18-11 13-10 10-13 10-18 11-15 7-19 6-14 3-7 1h-35l-18-3-17-5-16-7-15-8-11-8-11-9-12-12-13-17-10-18-7-17-5-17-28-12-37-15-36-15-39-16-41-17-32-13-6-18-7-30-5-32-3-28-2-33v-56l1-4 9 3 119 49 85 35 46 19 42 17 5-2 14-8 21-8 21-5 18-2h15l2-5 10-14 15-22 11-16 16-23 13-19 22-32 16-23 13-19 11-16 6-9 1-6 1-19 4-25 6-22 8-20 12-23 8-12 10-13 11-12 14-14 14-11 15-10 18-10 25-10 17-5 21-4z" fill="#FDFEFE"/>
<path transform="translate(1574,685)" d="m0 0 1 2-9 38-9 29-10 28-13 30-17 34-16 27-16 24-13 18-13 16-9 11-11 12-7 8-28 28-8 7-15 13-30 23-27 18-20 12-22 12-24 12-31 13-28 10-30 9-30 7-33 6-35 4-14 1h-67l-34-3-33-5-29-6-34-9-38-13-31-13-27-13-23-13-20-12-12-8-17-12-17-13-11-9-13-11-13-12-17-16-7-8-8-8-7-8-11-13-11-14-14-19-14-21-15-25-12-22-14-29-12-30-10-29v-3l9 3 131 54 70 29 3 2 6 20 8 18 10 17 9 11 9 10 7 7 13 10 15 9 17 8 18 6 14 3 8 1h35l17-3 20-6 16-7 14-8 14-10 13-12 10-11 12-18 8-15 7-19 4-16 2-13 1-21 18-13 17-12 18-13 17-12 18-13 17-12 18-13 17-12 4-3 2 1v2l418-1z" fill="#135487"/>
<path transform="translate(1382,1006)" d="m0 0 2 1-13 11-16 12-20 14-19 12-21 12-23 12-23 11-27 11-36 12-29 8-33 7-26 4-27 3-14 1h-67l-34-3-33-5-29-6-34-9-38-13-31-13-27-13-23-13-20-12-12-8-17-12-17-13-11-9 2-1 5 1h704z" fill="#1373A5"/>
<path transform="translate(1574,685)" d="m0 0 1 2-9 38-9 29-10 28-3 6h-2v2l-3 1-531 1v10h-1v-14l19-13 16-12 19-13 16-12 19-13 16-12 19-13 16-12 5-2v3l418-1z" fill="#13396D"/>
<path transform="translate(1197,328)" d="m0 0h23l16 3 19 7 15 9 11 9 9 9 10 14 9 19 5 19 1 7v21l-3 17-5 15-8 15-9 12-9 10-13 10-16 9-17 6-10 2-10 1h-14l-19-3-15-5-14-7-14-10-14-14-10-15-8-17-4-15-2-16v-11l2-15 4-15 7-16 8-12 12-14 11-9 13-8 16-7 16-4z" fill="#FDFEFE"/>
<path transform="translate(999,14)" d="m0 0h49l29 2 39 5 35 7 34 9 33 11 32 13 29 14 19 10 1 3-3 2h-545l-3-3 4-4 27-14 29-13 35-13 29-9 28-7 31-6 29-4z" fill="#0E1C2F"/>
<path transform="translate(1192,293)" d="m0 0h32l17 3 16 5 16 7 14 8 13 10 11 10 9 11 9 12 10 19 7 21 3 14 1 8v28l-3 19-8 24-10 19-12 16-12 13-11 9-15 10-21 10-21 6-12 2h-34l-20-4-18-6-16-8-15-10-14-12-11-12-10-14-11-21-6-18-4-21v-31l3-18 5-16 7-16 8-14 10-13 12-13 14-11 14-9 19-9 21-6zm5 35-20 4-15 6-14 8-9 7-9 8-11 14-8 14-6 16-3 14-1 10v11l3 21 5 15 9 17 9 12 13 13 10 7 12 7 16 6 14 3 9 1h14l15-2 17-5 16-8 13-9 11-10 10-13 8-14 6-15 3-13 1-8v-21l-4-20-5-13-8-15-10-13-10-10-14-10-16-8-16-5-12-2z" fill="#0A1E44"/>
<path transform="translate(841,673)" d="m0 0h19l19 3 18 6 16 8 14 10 13 12 10 13 8 14 5 11 5 16 3 21v13l-3 21-7 21-8 15-8 11-9 10-8 8-14 10-15 8-21 7-21 3h-14l-16-2-18-5-21-10-11-8-10-9-10-10-10-15-4-7v-2l9 3 43 18 22 9 18 4h22l17-4 16-7 14-10 9-9 9-13 7-15 4-17v-25l-4-17-8-17-10-13-8-8-10-7-16-8-41-17-27-11v-2l13-4z" fill="#135487"/>
<path transform="translate(841,673)" d="m0 0h19l19 3 18 6 16 8 14 10 13 12 10 13 8 14 5 11 5 16 3 21v13l-2 2v-10h-33v8h-1l-1-15-4-19-7-16-7-11-11-12-12-9-16-8-41-17-27-11v-2l13-4z" fill="#123A6E"/>
<path transform="translate(486,740)" d="m0 0 9 3 92 38 27 11v2l-7-2-98-1-6-2-10-25-7-21z" fill="#133A6E"/>
<path transform="translate(841,673)" d="m0 0h19l19 3 18 6 14 7-1 2-2-1h-66l-2 4-9-3-22-9v-2l13-4z" fill="#0A2248"/>
</svg>
